<svg width="207" height="51" viewBox="0 0 207 51" fill="none" xmlns="http://www.w3.org/2000/svg">
<g clip-path="url(#clip0_411_1055)">
<path d="M116.067 46.7631C116.086 47.0784 116.037 47.3941 115.924 47.689C115.811 47.9839 115.636 48.2512 115.411 48.4731C114.903 48.9042 114.249 49.1224 113.584 49.0821H110.34V41.0011H113.455C114.121 40.9605 114.778 41.169 115.299 41.5861C115.525 41.7974 115.702 42.056 115.816 42.3435C115.931 42.631 115.98 42.9402 115.961 43.2491C115.964 43.5975 115.871 43.94 115.692 44.2391C115.516 44.5368 115.255 44.7752 114.942 44.9241C115.288 45.0702 115.58 45.3195 115.779 45.6381C115.978 45.9786 116.077 46.368 116.066 46.7621M111.873 44.3021H113.337C113.626 44.3219 113.912 44.2319 114.137 44.0501C114.231 43.9586 114.305 43.848 114.352 43.7256C114.399 43.6033 114.42 43.4721 114.412 43.3411C114.422 43.2037 114.402 43.0659 114.355 42.9367C114.307 42.8074 114.233 42.6897 114.137 42.5911C113.913 42.4056 113.627 42.3132 113.337 42.3331H111.873V44.3021ZM114.532 46.6561C114.54 46.5189 114.52 46.3815 114.473 46.2524C114.425 46.1234 114.352 46.0055 114.257 45.9061C114.028 45.7106 113.731 45.6139 113.431 45.6371H111.873V47.7451H113.431C113.581 47.7566 113.732 47.7371 113.874 47.6877C114.016 47.6383 114.147 47.5601 114.257 47.4581C114.451 47.2381 114.549 46.9506 114.532 46.6581" fill="white"/>
<path d="M117.577 42.9923H119.029V46.5523C119.009 46.8894 119.076 47.226 119.222 47.5303C119.307 47.6505 119.424 47.7451 119.559 47.804C119.694 47.8628 119.843 47.8837 119.989 47.8643C120.133 47.8837 120.28 47.8647 120.415 47.8093C120.55 47.7538 120.667 47.6638 120.756 47.5483C120.907 47.2376 120.973 46.8928 120.949 46.5483V42.9883H122.401V46.6193C122.454 47.3063 122.239 47.987 121.801 48.5193C121.559 48.7447 121.273 48.9173 120.96 49.0261C120.648 49.1349 120.316 49.1775 119.986 49.1513C118.377 49.1513 117.573 48.3079 117.574 46.6213L117.577 42.9923Z" fill="white"/>
<path d="M123.69 47.2733V47.2263H125.049V47.2493C125.045 47.3542 125.069 47.4582 125.117 47.5515C125.165 47.6448 125.236 47.7242 125.324 47.7823C125.538 47.9196 125.789 47.987 126.044 47.9753C126.304 47.9895 126.564 47.9306 126.793 47.8053C126.879 47.7526 126.95 47.6774 126.997 47.5878C127.045 47.4982 127.067 47.3975 127.062 47.2963C127.066 47.2133 127.05 47.1305 127.015 47.0551C126.98 46.9797 126.928 46.9138 126.862 46.8633C126.66 46.737 126.431 46.6605 126.194 46.6403L125.55 46.5353C125.055 46.4838 124.587 46.2884 124.203 45.9733C124.052 45.8193 123.936 45.6355 123.862 45.4338C123.787 45.2321 123.756 45.0169 123.77 44.8023C123.76 44.5388 123.812 44.2767 123.923 44.0375C124.034 43.7984 124.2 43.5889 124.408 43.4263C124.877 43.0721 125.454 42.8918 126.042 42.9163C126.453 42.9082 126.862 42.9859 127.242 43.1443C127.564 43.2769 127.843 43.4955 128.05 43.7763C128.239 44.0407 128.34 44.3588 128.337 44.6843V44.7543H126.991V44.7193C126.994 44.6226 126.973 44.5266 126.929 44.4405C126.885 44.3544 126.819 44.281 126.739 44.2273C126.529 44.0981 126.285 44.0367 126.039 44.0513C125.799 44.0357 125.561 44.0974 125.36 44.2273C125.285 44.2801 125.225 44.3505 125.184 44.4321C125.143 44.5137 125.123 44.6041 125.126 44.6953C125.122 44.7748 125.136 44.8541 125.167 44.9273C125.198 45.0004 125.246 45.0654 125.307 45.1173C125.481 45.2392 125.685 45.3121 125.898 45.3283L126.613 45.4333C127.116 45.4744 127.595 45.6707 127.983 45.9953C128.139 46.1511 128.26 46.3381 128.339 46.544C128.417 46.7499 128.452 46.9701 128.44 47.1903C128.454 47.4685 128.399 47.7458 128.281 47.998C128.162 48.2501 127.984 48.4693 127.761 48.6363C127.243 48.9954 126.621 49.1743 125.992 49.1453C125.391 49.1751 124.799 48.9951 124.317 48.6363C124.111 48.4746 123.947 48.2668 123.838 48.0298C123.728 47.7928 123.675 47.5333 123.685 47.2723" fill="white"/>
<path d="M131.255 42.159H129.779V41H131.255V42.159ZM131.243 49.081H129.799V42.994H131.24L131.243 49.081Z" fill="white"/>
<path d="M134.276 42.992V43.542C134.455 43.3399 134.677 43.1814 134.926 43.079C135.177 42.9743 135.446 42.9206 135.717 42.921C135.988 42.9054 136.258 42.9498 136.509 43.0511C136.76 43.1524 136.986 43.3081 137.169 43.507C137.533 43.9584 137.716 44.5284 137.684 45.107V49.077H136.232V45.282C136.252 44.9922 136.16 44.7059 135.974 44.482C135.886 44.388 135.779 44.3143 135.66 44.2657C135.54 44.2172 135.412 44.1952 135.283 44.201C135.154 44.1966 135.024 44.2193 134.904 44.2676C134.783 44.316 134.674 44.3891 134.583 44.482C134.486 44.5902 134.412 44.7168 134.365 44.8542C134.317 44.9916 134.298 45.137 134.307 45.282V49.077H132.855V42.987L134.276 42.992Z" fill="white"/>
<path d="M140.576 46.6357C140.558 46.8096 140.576 46.9852 140.627 47.1521C140.679 47.3191 140.763 47.474 140.876 47.6077C141.115 47.8161 141.426 47.9214 141.743 47.9007C141.983 47.9146 142.221 47.8511 142.422 47.7197C142.502 47.6608 142.568 47.5844 142.615 47.4962C142.661 47.408 142.687 47.3104 142.691 47.2107L142.703 47.1757H144.085V47.2347C144.093 47.5012 144.04 47.766 143.928 48.008C143.816 48.2501 143.649 48.4626 143.441 48.6287C142.935 49.0046 142.313 49.1911 141.684 49.1557C141.344 49.1731 141.005 49.1226 140.685 49.007C140.365 48.8914 140.072 48.7132 139.822 48.4827C139.572 48.2008 139.382 47.8712 139.263 47.5139C139.145 47.1566 139.099 46.779 139.131 46.4037V45.6657C139.074 44.9194 139.314 44.1808 139.799 43.6107C140.306 43.1681 140.957 42.9247 141.63 42.9258C142.303 42.9269 142.953 43.1724 143.459 43.6167C143.945 44.1841 144.187 44.9213 144.132 45.6667V46.4747H140.572L140.576 46.6357ZM140.576 45.4407V45.4757H142.684V45.3237C142.684 44.5504 142.336 44.1641 141.642 44.1647C141.497 44.1551 141.351 44.1762 141.215 44.2267C141.079 44.2772 140.954 44.3559 140.851 44.4577C140.64 44.7401 140.542 45.0909 140.576 45.4417" fill="white"/>
<path d="M145.377 47.2733V47.2263H146.735V47.2493C146.732 47.3543 146.755 47.4584 146.804 47.5516C146.852 47.6449 146.923 47.7243 147.011 47.7823C147.225 47.9196 147.477 47.9871 147.731 47.9753C147.992 47.9895 148.251 47.9306 148.48 47.8053C148.567 47.7527 148.638 47.6776 148.685 47.588C148.733 47.4984 148.755 47.3976 148.75 47.2963C148.754 47.2133 148.738 47.1305 148.703 47.0551C148.669 46.9797 148.616 46.9138 148.55 46.8633C148.349 46.7371 148.12 46.6607 147.883 46.6403L147.239 46.5353C146.745 46.4838 146.276 46.2884 145.892 45.9733C145.742 45.8194 145.625 45.6356 145.551 45.4339C145.476 45.2322 145.444 45.017 145.458 44.8023C145.448 44.5388 145.501 44.2767 145.612 44.0375C145.723 43.7984 145.889 43.5889 146.096 43.4263C146.565 43.0721 147.143 42.8918 147.73 42.9163C148.142 42.9082 148.55 42.9858 148.93 43.1443C149.252 43.2769 149.532 43.4955 149.738 43.7763C149.928 44.0408 150.028 44.3588 150.025 44.6843V44.7543H148.678V44.7193C148.682 44.6226 148.66 44.5265 148.616 44.4404C148.572 44.3543 148.507 44.2809 148.426 44.2273C148.216 44.0981 147.972 44.0367 147.726 44.0513C147.487 44.0358 147.249 44.0975 147.047 44.2273C146.973 44.2801 146.913 44.3505 146.872 44.4321C146.831 44.5137 146.811 44.6041 146.813 44.6953C146.809 44.7748 146.823 44.8543 146.855 44.9274C146.887 45.0006 146.934 45.0655 146.995 45.1173C147.17 45.2392 147.374 45.3121 147.586 45.3283L148.301 45.4333C148.805 45.4743 149.284 45.6707 149.671 45.9953C149.827 46.1511 149.948 46.3381 150.027 46.544C150.106 46.7499 150.14 46.9701 150.128 47.1903C150.142 47.4685 150.087 47.7458 149.969 47.998C149.851 48.2501 149.672 48.4693 149.449 48.6363C148.931 48.9953 148.31 49.1741 147.681 49.1453C147.081 49.1751 146.488 48.9952 146.006 48.6363C145.801 48.4746 145.637 48.2668 145.527 48.0298C145.417 47.7928 145.365 47.5333 145.374 47.2723" fill="white"/>
<path d="M151.221 47.2733V47.2263H152.579V47.2493C152.576 47.3543 152.599 47.4584 152.648 47.5516C152.696 47.6449 152.767 47.7243 152.855 47.7823C153.069 47.9196 153.321 47.987 153.575 47.9753C153.835 47.9895 154.095 47.9306 154.324 47.8053C154.41 47.7526 154.481 47.6774 154.528 47.5878C154.576 47.4982 154.598 47.3975 154.593 47.2963C154.597 47.2133 154.581 47.1305 154.546 47.0551C154.511 46.9797 154.459 46.9138 154.393 46.8633C154.191 46.7371 153.963 46.6607 153.726 46.6403L153.082 46.5353C152.587 46.4839 152.119 46.2884 151.735 45.9733C151.584 45.8194 151.468 45.6356 151.393 45.4339C151.319 45.2322 151.287 45.017 151.301 44.8023C151.291 44.5388 151.343 44.2767 151.454 44.0375C151.565 43.7984 151.731 43.5889 151.939 43.4263C152.408 43.0721 152.986 42.8918 153.573 42.9163C153.984 42.9082 154.393 42.9859 154.773 43.1443C155.095 43.2769 155.375 43.4955 155.581 43.7763C155.771 44.0407 155.871 44.3588 155.868 44.6843V44.7543H154.524V44.7193C154.527 44.6226 154.506 44.5266 154.462 44.4405C154.418 44.3544 154.352 44.281 154.272 44.2273C154.062 44.0981 153.818 44.0367 153.572 44.0513C153.333 44.0358 153.095 44.0975 152.893 44.2273C152.818 44.2801 152.758 44.3505 152.717 44.4321C152.677 44.5137 152.657 44.6041 152.659 44.6953C152.655 44.7748 152.669 44.8543 152.701 44.9274C152.732 45.0006 152.78 45.0655 152.841 45.1173C153.015 45.2393 153.219 45.3122 153.432 45.3283L154.147 45.4333C154.651 45.4743 155.129 45.6707 155.517 45.9953C155.673 46.1511 155.794 46.3381 155.873 46.544C155.951 46.7499 155.986 46.9701 155.974 47.1903C155.988 47.4685 155.933 47.7458 155.815 47.998C155.696 48.2501 155.518 48.4693 155.295 48.6363C154.777 48.9953 154.156 49.1741 153.527 49.1453C152.926 49.1751 152.334 48.9952 151.852 48.6363C151.647 48.4746 151.483 48.2668 151.373 48.0298C151.263 47.7928 151.211 47.5333 151.22 47.2723" fill="white"/>
<path d="M162.172 41V43.53C162.345 43.3314 162.561 43.1751 162.804 43.073C163.049 42.971 163.311 42.9193 163.577 42.921C163.846 42.9052 164.116 42.9491 164.367 43.0493C164.618 43.1495 164.844 43.3037 165.029 43.501C165.395 43.9548 165.579 44.5289 165.544 45.111V49.081H164.092V45.286C164.111 44.9961 164.019 44.7097 163.834 44.486C163.745 44.3936 163.637 44.3212 163.518 44.2738C163.399 44.2264 163.271 44.2049 163.143 44.211C163.013 44.2066 162.884 44.2293 162.763 44.2777C162.643 44.3261 162.533 44.3991 162.443 44.492C162.346 44.6003 162.272 44.7269 162.225 44.8643C162.177 45.0016 162.158 45.1471 162.168 45.292V49.087H160.719V41.006L162.172 41Z" fill="white"/>
<path d="M167.1 42.9923H168.552V46.5523C168.532 46.8894 168.598 47.226 168.745 47.5303C168.83 47.6504 168.947 47.745 169.082 47.8038C169.217 47.8627 169.366 47.8836 169.512 47.8643C169.656 47.8836 169.803 47.8646 169.938 47.8091C170.072 47.7536 170.19 47.6637 170.279 47.5483C170.429 47.2376 170.496 46.8928 170.472 46.5483V42.9883H171.924V46.6193C171.976 47.3063 171.761 47.987 171.324 48.5193C171.082 48.7448 170.795 48.9174 170.483 49.0262C170.17 49.135 169.838 49.1776 169.509 49.1513C167.9 49.1513 167.096 48.3079 167.096 46.6213L167.1 42.9923Z" fill="white"/>
<path d="M178.085 45.0729V49.0778H176.68V48.5508C176.503 48.7427 176.29 48.898 176.054 49.0078C175.795 49.1097 175.518 49.1577 175.24 49.1488C174.976 49.1658 174.713 49.1304 174.463 49.0445C174.214 48.9587 173.984 48.8242 173.788 48.6488C173.611 48.4645 173.473 48.2457 173.385 48.006C173.296 47.7664 173.258 47.511 173.273 47.2559C173.261 47.0127 173.305 46.7701 173.4 46.5461C173.495 46.322 173.64 46.1224 173.823 45.9618C174.259 45.6227 174.805 45.4543 175.357 45.4878H176.645V45.0078C176.663 44.8758 176.651 44.7412 176.609 44.6146C176.567 44.4881 176.496 44.3731 176.402 44.2788C176.307 44.1845 176.192 44.1134 176.066 44.0712C175.939 44.0291 175.805 44.017 175.673 44.0358C175.439 44.0217 175.208 44.0928 175.023 44.2358C174.944 44.3026 174.881 44.3863 174.84 44.4807C174.798 44.5751 174.779 44.6778 174.783 44.7808V44.8158H173.436V44.7728C173.425 44.5155 173.474 44.2592 173.58 44.0243C173.686 43.7894 173.845 43.5824 174.045 43.4199C174.516 43.0662 175.096 42.8892 175.685 42.9199C176.325 42.8772 176.958 43.0712 177.465 43.4649C177.68 43.6711 177.847 43.9223 177.955 44.2005C178.062 44.4788 178.107 44.7773 178.086 45.0749M176.645 46.9138V46.4808H175.591C174.981 46.4808 174.677 46.7268 174.678 47.2188C174.678 47.7262 174.974 47.9798 175.568 47.9798C175.716 47.9942 175.866 47.9784 176.008 47.9331C176.15 47.8879 176.281 47.8143 176.394 47.7168C176.578 47.4927 176.668 47.2061 176.646 46.9168" fill="white"/>
<path d="M184.676 44.338H187.744V45.673H184.676V47.746H188.276V49.081H183.146V41H188.276V42.335H184.676V44.338Z" fill="white"/>
<path d="M194.21 45.0729V49.0778H192.804V48.5508C192.627 48.7428 192.413 48.8981 192.177 49.0078C191.918 49.1097 191.641 49.1577 191.363 49.1488C191.1 49.1658 190.836 49.1304 190.586 49.0445C190.337 48.9587 190.107 48.8242 189.911 48.6488C189.734 48.4645 189.596 48.2457 189.508 48.006C189.419 47.7664 189.381 47.511 189.396 47.2559C189.384 47.0127 189.428 46.7701 189.523 46.5461C189.618 46.322 189.763 46.1224 189.946 45.9618C190.382 45.6227 190.928 45.4543 191.48 45.4878H192.768V45.0078C192.786 44.8758 192.774 44.7412 192.732 44.6146C192.69 44.4881 192.619 44.3731 192.525 44.2788C192.43 44.1845 192.315 44.1134 192.189 44.0712C192.062 44.0291 191.928 44.017 191.796 44.0358C191.562 44.0218 191.331 44.0928 191.146 44.2358C191.067 44.3026 191.004 44.3863 190.963 44.4807C190.921 44.5751 190.902 44.6778 190.906 44.7808V44.8158H189.56V44.7728C189.549 44.5155 189.598 44.2592 189.704 44.0243C189.81 43.7894 189.969 43.5824 190.169 43.4199C190.64 43.0662 191.22 42.8892 191.809 42.9199C192.449 42.8772 193.082 43.0712 193.589 43.4649C193.804 43.671 193.971 43.9222 194.079 44.2005C194.186 44.4788 194.231 44.7773 194.21 45.0749M192.769 46.9138V46.4808H191.715C191.105 46.4808 190.801 46.7268 190.801 47.2188C190.801 47.7262 191.097 47.9798 191.691 47.9798C191.839 47.9942 191.989 47.9784 192.131 47.9331C192.273 47.8879 192.404 47.8143 192.517 47.7168C192.701 47.4927 192.791 47.2061 192.769 46.9168" fill="white"/>
<path d="M195.497 47.2733V47.2263H196.854V47.2493C196.851 47.3542 196.874 47.4582 196.923 47.5515C196.971 47.6448 197.042 47.7242 197.129 47.7823C197.344 47.9195 197.595 47.987 197.849 47.9753C198.11 47.9895 198.369 47.9306 198.598 47.8053C198.685 47.7526 198.756 47.6774 198.803 47.5878C198.85 47.4982 198.873 47.3975 198.867 47.2963C198.871 47.2133 198.855 47.1306 198.821 47.0552C198.786 46.9797 198.733 46.9139 198.667 46.8633C198.465 46.737 198.237 46.6605 197.999 46.6403L197.355 46.5353C196.861 46.4839 196.393 46.2885 196.008 45.9733C195.858 45.8193 195.742 45.6355 195.667 45.4338C195.593 45.232 195.561 45.0169 195.575 44.8023C195.565 44.5388 195.618 44.2767 195.729 44.0375C195.84 43.7984 196.006 43.5889 196.213 43.4263C196.682 43.0721 197.26 42.8918 197.847 42.9163C198.259 42.9082 198.667 42.9859 199.047 43.1443C199.369 43.2769 199.649 43.4955 199.855 43.7763C200.045 44.0407 200.146 44.3588 200.142 44.6843V44.7543H198.795V44.7193C198.799 44.6226 198.777 44.5266 198.733 44.4405C198.689 44.3544 198.624 44.281 198.543 44.2273C198.334 44.0981 198.089 44.0367 197.843 44.0513C197.604 44.0357 197.366 44.0974 197.164 44.2273C197.09 44.2801 197.03 44.3505 196.989 44.4321C196.948 44.5137 196.928 44.6041 196.93 44.6953C196.926 44.7748 196.94 44.8541 196.972 44.9273C197.003 45.0004 197.051 45.0654 197.111 45.1173C197.286 45.2392 197.49 45.3121 197.702 45.3283L198.417 45.4333C198.921 45.4744 199.4 45.6707 199.787 45.9953C199.943 46.1512 200.064 46.3382 200.143 46.5442C200.221 46.7501 200.256 46.9702 200.243 47.1903C200.257 47.4685 200.203 47.7458 200.084 47.998C199.966 48.2501 199.787 48.4693 199.564 48.6363C199.047 48.9953 198.426 49.1741 197.796 49.1453C197.196 49.1751 196.604 48.9951 196.121 48.6363C195.916 48.4746 195.752 48.2668 195.642 48.0298C195.532 47.7928 195.48 47.5333 195.489 47.2723" fill="white"/>
<path d="M203.976 49.6093C203.86 49.9967 203.624 50.3372 203.302 50.5813C202.953 50.7979 202.546 50.9026 202.137 50.8813H201.637V49.5813H202.094C202.276 49.5945 202.458 49.5516 202.615 49.4583C202.752 49.3369 202.849 49.1753 202.89 48.9963L202.913 48.9143L200.852 42.9883H202.386L203.581 46.8183L204.799 42.9883H206.286L203.976 49.6093Z" fill="white"/>
<path d="M26.8351 5.31432V37.6143L28.7351 37.8673C28.8146 37.8739 28.8946 37.8641 28.9702 37.8386C29.0458 37.8131 29.1154 37.7724 29.1747 37.719C29.234 37.6656 29.2817 37.6007 29.315 37.5282C29.3482 37.4556 29.3663 37.3771 29.3681 37.2973V5.57132C29.3699 5.51266 29.3596 5.45425 29.338 5.39969C29.3164 5.34512 29.2838 5.29557 29.2423 5.25407C29.2008 5.21256 29.1513 5.18 29.0967 5.15837C29.0421 5.13675 28.9837 5.12652 28.9251 5.12832C28.0381 5.19132 27.4681 5.25532 26.8351 5.31832M26.8351 2.78432L30.7581 2.40432C30.9048 2.38437 31.0541 2.39544 31.1963 2.43682C31.3385 2.47821 31.4704 2.54897 31.5835 2.64455C31.6966 2.74013 31.7884 2.85839 31.8529 2.99168C31.9174 3.12497 31.9533 3.27032 31.9581 3.41832V39.6493C31.9991 39.9065 31.974 40.17 31.8852 40.4148C31.7963 40.6596 31.6467 40.8779 31.4502 41.0489C31.2538 41.2199 31.017 41.3382 30.7623 41.3925C30.5076 41.4468 30.2432 41.4354 29.9941 41.3593L26.8941 40.7263C26.8941 42.3723 27.0211 43.9563 25.1211 43.7033C24.4911 43.6393 2.06807 40.8523 1.55807 40.7893C1.23418 40.718 0.942144 40.5436 0.725779 40.2923C0.509414 40.0409 0.380392 39.7262 0.358074 39.3953V5.38132C0.358074 4.36732 0.294074 3.35432 1.43407 3.03732C1.87807 2.97432 24.5581 0.123324 24.8711 0.123324C25.182 0.0648069 25.5036 0.106942 25.7889 0.243611C26.0743 0.38028 26.3087 0.604366 26.4581 0.883324C26.7731 1.46398 26.9055 2.12618 26.8381 2.78332" fill="white"/>
<path d="M193.688 29.3968V35.3748H188.802V8.30078H193.688V23.5908L199.666 15.0838H205.184L198.744 23.5908L205.987 35.3748H200.009L195.409 27.2128L193.688 29.3968ZM44.9262 27.8478V35.3778H39.8672V8.30078H44.9262V20.8898L52.6262 8.30078H58.4322L50.5572 19.6248L59.4092 35.3748H53.5442L47.5662 23.7628L44.9262 27.8478ZM181.157 23.2478C181.157 20.4308 179.893 18.9948 177.708 18.9948C175.351 18.9948 174.202 20.4318 174.202 23.2478V27.0418C174.202 29.8578 175.352 31.2948 177.708 31.2948C179.892 31.2948 181.157 29.8578 181.157 27.0418V23.2478ZM169.488 27.0418V23.2478C169.488 20.2588 170.121 18.2478 171.73 16.8098C173.11 15.3728 175.179 14.7408 177.708 14.7408C178.793 14.6651 179.881 14.8094 180.908 15.165C181.936 15.5205 182.881 16.08 183.686 16.8098C185.238 18.2468 185.87 20.2588 185.87 23.2478V27.0418C185.87 30.0308 185.238 32.0998 183.686 33.4798C182.881 34.2096 181.936 34.7691 180.908 35.1246C179.881 35.4801 178.793 35.6244 177.708 35.5488C175.179 35.5488 173.108 34.9168 171.73 33.4798C170.121 32.0998 169.488 30.0308 169.488 27.0418ZM162.073 23.2478C162.073 20.4308 160.981 18.9948 158.797 18.9948C156.44 18.9948 155.291 20.4318 155.291 23.2478V27.0418C155.291 29.8578 156.44 31.2948 158.797 31.2948C160.981 31.2948 162.073 29.8578 162.073 27.0418V23.2478ZM150.404 27.0398V23.2478C150.404 20.2588 151.204 18.2478 152.646 16.8098C154.351 15.3507 156.556 14.6092 158.796 14.7408C159.881 14.6651 160.969 14.8093 161.996 15.1649C163.024 15.5204 163.969 16.0799 164.774 16.8098C166.154 18.2468 166.959 20.2588 166.959 23.2478V27.0418C166.959 30.0308 166.159 32.0998 164.774 33.4798C163.969 34.2096 163.024 34.7691 161.996 35.1247C160.969 35.4802 159.881 35.6245 158.796 35.5488C156.556 35.6803 154.352 34.9387 152.646 33.4798C151.209 32.0998 150.404 30.0308 150.404 27.0418M142.932 23.2478C143.014 22.0819 142.689 20.9239 142.012 19.9708C141.727 19.6301 141.364 19.3634 140.953 19.1933C140.543 19.0232 140.098 18.9548 139.655 18.9938C139.202 18.9608 138.748 19.0438 138.336 19.2349C137.924 19.4259 137.567 19.7187 137.299 20.0858C136.612 20.992 136.266 22.1116 136.322 23.2478V27.0418C136.256 28.1788 136.603 29.3013 137.299 30.2028C137.594 30.5835 137.981 30.8833 138.423 31.0742C138.865 31.2652 139.349 31.341 139.828 31.2948C141.84 31.2948 142.928 29.8578 142.928 27.0418L142.932 23.2478ZM136.206 35.3768H131.435V8.30078H136.321V16.9808C136.86 16.2739 137.556 15.7029 138.355 15.3136C139.154 14.9243 140.033 14.7274 140.921 14.7388C141.864 14.694 142.805 14.8559 143.679 15.2133C144.553 15.5707 145.338 16.1149 145.979 16.8078C147.186 18.2448 147.818 20.2568 147.818 23.1308V27.2118C147.818 30.0278 147.186 32.0978 145.979 33.4778C145.362 34.1543 144.606 34.6895 143.762 35.0466C142.919 35.4037 142.009 35.5743 141.093 35.5468C140.175 35.5968 139.257 35.4364 138.411 35.0778C137.564 34.7193 136.81 34.172 136.207 33.4778L136.206 35.3768ZM123.33 28.1338V26.5798H119.709C117.697 26.5798 116.72 27.4998 116.72 29.1088C116.72 30.8338 117.697 31.6378 119.709 31.6378C120.974 31.6378 121.951 31.4658 122.409 30.8378C123.058 30.0932 123.388 29.1236 123.329 28.1378M128.1 21.9878V35.3748H123.329V33.6478C122.762 34.2577 122.078 34.7465 121.317 35.0848C120.457 35.4163 119.539 35.5727 118.617 35.5448C116.433 35.5448 114.823 35.0848 113.731 33.9928C112.565 32.6832 111.947 30.9746 112.007 29.2218C111.973 28.3973 112.126 27.5758 112.455 26.819C112.784 26.0623 113.281 25.39 113.907 24.8528C115.34 23.7172 117.139 23.1449 118.965 23.2438H123.334V21.6938C123.334 19.5098 122.242 18.3598 120.058 18.3598C119.257 18.3603 118.483 18.6457 117.873 19.1648C117.626 19.3799 117.427 19.6447 117.289 19.9419C117.151 20.2392 117.078 20.5622 117.073 20.8898V21.0618H112.473V20.8898C112.463 20.0272 112.643 19.173 113.001 18.3881C113.359 17.6032 113.885 16.9069 114.543 16.3488C116.156 15.2214 118.095 14.656 120.061 14.7398C122.191 14.6265 124.297 15.2342 126.039 16.4648C127.476 17.7288 128.108 19.5108 128.108 21.9828M106.374 29.1088C106.374 30.4878 107.006 31.2928 108.443 31.2928H109.88V35.3738H107.638C106.025 35.4013 104.455 34.8508 103.212 33.8218C102.637 33.2414 102.187 32.5491 101.891 31.7877C101.594 31.0264 101.457 30.2123 101.487 29.3958V18.3598H98.6712V14.9108H101.487V11.0028L106.374 9.22078V14.9108H110.344V18.3598H106.374V29.1088ZM92.0042 28.1318V26.5798H88.4982C86.4862 26.5798 85.3982 27.4998 85.3982 29.1088C85.3982 30.8338 86.3172 31.6378 88.3872 31.6378C88.8864 31.6993 89.3928 31.6602 89.8766 31.5228C90.3605 31.3854 90.8119 31.1525 91.2042 30.8378C91.74 30.0404 92.0192 29.0983 92.0042 28.1378M96.8902 21.9878V35.3748H92.1192V33.6478C91.4704 34.2376 90.7336 34.7224 89.9352 35.0848C89.0763 35.4218 88.1572 35.5784 87.2352 35.5448C85.4867 35.6609 83.7596 35.1059 82.4062 33.9928C81.8081 33.3551 81.3427 32.605 81.037 31.786C80.7312 30.967 80.5913 30.0953 80.6252 29.2218C80.591 28.3973 80.7442 27.5758 81.0733 26.819C81.4024 26.0623 81.8988 25.39 82.5252 24.8528C84.0384 23.7437 85.8812 23.1768 87.7562 23.2438H92.0102V21.6938C92.0102 19.5098 90.9182 18.3598 88.6762 18.3598C87.927 18.3597 87.2065 18.6479 86.6642 19.1648C86.3762 19.3543 86.1375 19.6095 85.9676 19.9094C85.7977 20.2094 85.7016 20.5454 85.6872 20.8898V21.0618H81.2542V20.8898C81.2052 20.0216 81.3681 19.1546 81.7287 18.3633C82.0893 17.5721 82.6368 16.8804 83.3242 16.3478C84.9137 15.1724 86.8701 14.6019 88.8422 14.7388C90.9198 14.6133 92.9752 15.224 94.6472 16.4638C95.4078 17.1589 96.0038 18.0149 96.3916 18.9695C96.7795 19.9241 96.9495 20.9532 96.8892 21.9818M66.3092 8.30078V16.8078C66.8576 16.0498 67.6487 15.5022 68.5512 15.2558C69.3269 14.9029 70.1711 14.7264 71.0232 14.7388C71.9268 14.682 72.832 14.8226 73.6759 15.1507C74.5198 15.4788 75.2822 15.9865 75.9102 16.6388C77.1416 18.1408 77.7758 20.0443 77.6912 21.9848V35.3748H72.8042V22.6138C72.8247 22.1303 72.7489 21.6476 72.5811 21.1937C72.4134 20.7398 72.1571 20.3238 71.8272 19.9698C71.5661 19.6461 71.2321 19.3888 70.8525 19.219C70.4729 19.0492 70.0585 18.9717 69.6432 18.9928C69.204 18.9831 68.7676 19.065 68.3618 19.2332C67.956 19.4014 67.5897 19.6522 67.2862 19.9698C66.9563 20.3238 66.7 20.7398 66.5322 21.1937C66.3645 21.6476 66.2887 22.1303 66.3092 22.6138V35.3748H61.4232V8.30078H66.3092Z" fill="white"/>
</g>
<defs>
<clipPath id="clip0_411_1055">
<rect width="205.926" height="50.772" fill="white" transform="translate(0.357422 0.113281)"/>
</clipPath>
</defs>
</svg>
