<svg width="245" height="64" viewBox="0 0 245 64" fill="none" xmlns="http://www.w3.org/2000/svg">
<path fill-rule="evenodd" clip-rule="evenodd" d="M1.20312 32.2285C1.20312 19.8688 11.2971 9.84766 23.7496 9.84766C29.7287 9.84935 35.4625 12.2079 39.6904 16.4047C43.9183 20.6016 46.2943 26.2932 46.296 32.2285C46.2943 38.1637 43.9183 43.8553 39.6904 48.0522C35.4625 52.249 29.7287 54.6076 23.7496 54.6093C11.2971 54.6093 1.20312 44.5894 1.20312 32.2285Z" fill="white"/>
<mask id="mask0_411_1106" style="mask-type:alpha" maskUnits="userSpaceOnUse" x="0" y="9" width="47" height="46">
<path d="M0.980469 9.625H46.5195V54.8282H0.980469V9.625Z" fill="white"/>
</mask>
<g mask="url(#mask0_411_1106)">
<path fill-rule="evenodd" clip-rule="evenodd" d="M23.75 10.0679C11.4407 10.0679 1.42663 20.0084 1.42663 32.2272C1.42663 44.4461 11.4407 54.3866 23.75 54.3866C36.0593 54.3866 46.0734 44.4461 46.0734 32.2272C46.0734 20.0084 36.058 10.0679 23.75 10.0679ZM23.75 54.8295C11.1944 54.8295 0.980469 44.6906 0.980469 32.2272C0.980469 19.7639 11.1944 9.625 23.75 9.625C36.3056 9.625 46.5195 19.7639 46.5195 32.2272C46.5195 44.6906 36.3056 54.8295 23.75 54.8295" fill="white"/>
</g>
<path fill-rule="evenodd" clip-rule="evenodd" d="M20.8591 41.9876C21.5168 41.3003 21.8456 40.4529 21.8456 39.4443C21.8456 38.963 21.7592 38.5112 21.5864 38.0875C21.4158 37.6685 21.1693 37.2842 20.8591 36.9534C20.5471 36.6219 20.1899 36.3582 19.7863 36.1636C19.3827 35.9691 18.9378 35.8705 18.453 35.8705C18.0145 35.8705 17.5877 35.9627 17.1725 36.1457C16.7597 36.3277 16.3885 36.5911 16.0816 36.9201C15.7709 37.2529 15.522 37.6356 15.3376 38.0708C15.1537 38.5061 15.0599 38.9736 15.0616 39.4456C15.0616 39.9268 15.148 40.3851 15.3208 40.8203C15.4936 41.2555 15.736 41.6344 16.0481 41.9544C16.3601 42.2744 16.7173 42.5329 17.1209 42.7275C17.5245 42.922 17.9681 43.0193 18.453 43.0193C19.3994 43.0193 20.2015 42.6763 20.8591 41.9889V41.9876ZM16.4453 44.0152C15.8354 43.7721 15.2775 43.4163 14.8012 42.9668C14.3276 42.5203 13.9503 41.9829 13.6922 41.3873C13.4263 40.7742 13.2911 40.1131 13.2951 39.4456C13.2898 38.7837 13.4251 38.1282 13.6922 37.5217C13.9579 36.9252 14.3279 36.4043 14.8012 35.9576C15.2779 35.5085 15.8357 35.1529 16.4453 34.9092C17.0694 34.6571 17.7386 34.5316 18.453 34.5316C19.1406 34.5264 19.8226 34.6546 20.4607 34.9092C21.0848 35.1614 21.6328 35.5108 22.106 35.9576C22.5793 36.4043 22.9494 36.9252 23.2137 37.5217C23.478 38.1182 23.6121 38.7582 23.6121 39.4456C23.6121 40.1329 23.4793 40.7806 23.2137 41.3873C22.9566 41.9832 22.5797 42.5207 22.106 42.9668C21.6293 43.4165 21.071 43.7722 20.4607 44.0152C19.8379 44.2673 19.1686 44.3928 18.453 44.3928C17.7373 44.3928 17.0694 44.2673 16.4453 44.0152V44.0152ZM31.3825 27.5544C31.7861 27.3713 32.1446 27.1128 32.4554 26.7812C32.7705 26.4448 33.0225 26.0551 33.1994 25.6305C33.3851 25.1966 33.4766 24.7371 33.4766 24.2558C33.4797 23.7906 33.3913 23.3292 33.2161 22.8977C33.0434 22.474 32.8009 22.0964 32.4889 21.7636C32.1768 21.4308 31.8145 21.1684 31.398 20.9739C30.9871 20.7802 30.5376 20.6805 30.0827 20.682C29.6411 20.6828 29.2047 20.7766 28.8023 20.9572C28.3894 21.1393 28.0139 21.3953 27.6946 21.7124C27.3723 22.0337 27.1182 22.4113 26.9325 22.8465C26.7469 23.2817 26.6553 23.7515 26.6553 24.2545C26.6553 24.7358 26.7417 25.1889 26.9145 25.6113C27.0873 26.0337 27.3297 26.4139 27.6418 26.7467C27.9509 27.0771 28.3213 27.3452 28.7326 27.5364C29.1551 27.7326 29.6164 27.8324 30.0827 27.8283C30.5306 27.8313 30.9737 27.7374 31.3812 27.5531L31.3825 27.5544ZM33.1994 44.1867L23.7501 32.2276L14.1255 20.5438L15.3363 19.5134L24.7172 31.4379L34.4102 43.1217L33.1981 44.1867H33.1994ZM28.0595 28.7921C27.4467 28.5541 26.8874 28.1978 26.4142 27.7438C25.9525 27.2971 25.5838 26.7761 25.3065 26.1809C25.0281 25.577 24.8863 24.9199 24.8913 24.2558C24.8913 23.5684 25.0306 22.9272 25.3065 22.332C25.5825 21.7368 25.9525 21.2158 26.4142 20.7678C26.89 20.3129 27.4483 19.9516 28.0595 19.7028C28.6953 19.4392 29.3696 19.3086 30.084 19.3086C30.7984 19.3086 31.4689 19.4404 32.0917 19.7028C32.7001 19.9571 33.2574 20.3178 33.7371 20.7678C34.2103 21.2158 34.5791 21.7368 34.8448 22.332C35.1104 22.9272 35.2432 23.5697 35.2432 24.2558C35.2432 24.9419 35.1104 25.5844 34.8448 26.1809C34.5791 26.7774 34.2103 27.2971 33.7371 27.7438C33.26 28.1929 32.7018 28.5486 32.0917 28.7921C31.4538 29.047 30.7717 29.1753 30.084 29.1697C29.391 29.1742 28.7036 29.046 28.0595 28.7921V28.7921Z" fill="black"/>
<path fill-rule="evenodd" clip-rule="evenodd" d="M62.1173 28.7925V44.4277H57.3398V20.0296H61.0445L73.8528 36.0424V20.0642H78.6303V44.4277H74.7542L62.1173 28.7925ZM87.146 32.2293C87.1436 33.2663 87.301 34.2975 87.6128 35.2872C87.9027 36.2308 88.3599 37.1155 88.9629 37.8997C89.5467 38.6515 90.2841 39.2722 91.1266 39.7211C91.9803 40.1794 92.9499 40.4085 94.0344 40.4085C95.1421 40.4085 96.1169 40.1743 96.9589 39.7045C97.8009 39.2347 98.5114 38.6101 99.0878 37.8319C99.6642 37.0536 100.104 36.1768 100.403 35.2027C100.701 34.2397 100.853 33.238 100.853 32.2306C100.856 31.1918 100.692 30.1592 100.368 29.1714C100.045 28.1871 99.5894 27.3154 99.0002 26.5602C98.4109 25.805 97.6965 25.2034 96.8545 24.7554C96.0124 24.3074 95.0595 24.0847 93.9983 24.0847C92.8906 24.0847 91.9158 24.3202 91.0738 24.7899C90.2317 25.2597 89.5161 25.8779 88.9268 26.6447C88.3375 27.4114 87.8939 28.2831 87.5948 29.2571C87.2962 30.22 87.1446 31.2218 87.1447 32.2293M93.9648 44.6005C92.2343 44.6005 90.6521 44.2523 89.2221 43.5522C87.8198 42.8754 86.5667 41.9291 85.5355 40.7682C84.5091 39.6123 83.7173 38.2888 83.1641 36.7989C82.6109 35.309 82.3337 33.7871 82.3337 32.2293C82.3337 30.6024 82.6277 29.0447 83.2157 27.556C83.8037 26.0674 84.6238 24.7503 85.6734 23.6047C86.7217 22.4609 87.9861 21.5329 89.3949 20.8731C90.8262 20.1973 92.3826 19.8594 94.0692 19.8594C95.7997 19.8594 97.3806 20.2203 98.8119 20.9423C100.21 21.639 101.457 22.6024 102.48 23.7775C103.501 24.9543 104.299 26.3047 104.835 27.7634C105.382 29.2143 105.663 30.7506 105.665 32.2997C105.672 33.8934 105.372 35.4737 104.783 36.9563C104.217 38.3985 103.389 39.7258 102.342 40.8731C101.299 42.0106 100.04 42.9331 98.6378 43.588C97.2065 44.2639 95.6488 44.6018 93.9648 44.6018" fill="white"/>
<path fill-rule="evenodd" clip-rule="evenodd" d="M125.468 37.5916C125.468 37.0412 125.37 36.5087 125.174 35.9941C124.978 35.4796 124.712 35.0265 124.377 34.6361C124.046 34.2498 123.64 33.9341 123.183 33.7081C122.71 33.4763 122.188 33.3584 121.66 33.3637H112.867V41.749H121.418C121.968 41.7549 122.512 41.6372 123.01 41.4047C123.495 41.1769 123.922 40.8722 124.291 40.4946C124.662 40.1127 124.956 39.6633 125.156 39.1711C125.364 38.668 125.468 38.1394 125.468 37.5903V37.5916ZM112.867 22.7116V30.8562H120.691C121.245 30.8562 121.752 30.7474 122.213 30.5298C122.675 30.3122 123.074 30.0204 123.407 29.653C123.741 29.2857 124.007 28.8569 124.203 28.3641C124.399 27.8713 124.497 27.3503 124.497 26.7999C124.501 26.2499 124.407 25.7036 124.22 25.1858C124.051 24.7105 123.799 24.2685 123.476 23.8802C123.164 23.5132 122.774 23.2195 122.333 23.02C121.883 22.8142 121.393 22.7089 120.897 22.7116H112.867V22.7116ZM128.618 38.1407C128.629 39.0321 128.434 39.914 128.047 40.7186C127.676 41.4849 127.145 42.1643 126.489 42.7116C125.832 43.262 125.07 43.6857 124.204 43.9826C123.339 44.2796 122.409 44.4293 121.418 44.4293H109.752V20.0312H121.972C122.826 20.0312 123.6 20.2143 124.292 20.5817C124.985 20.949 125.573 21.4239 126.057 22.0076C126.542 22.5913 126.917 23.2556 127.183 24.0005C127.449 24.7455 127.582 25.4956 127.582 26.2508C127.582 27.4655 127.276 28.5881 126.665 29.6185C126.053 30.6489 125.182 31.4169 124.051 31.9212C125.459 32.3333 126.572 33.0962 127.392 34.206C128.212 35.3157 128.621 36.629 128.621 38.1407H128.618Z" fill="white"/>
<path d="M136.131 32.917H143.574C144.22 32.917 144.803 32.7788 145.322 32.5048C145.842 32.2309 146.286 31.8584 146.656 31.3887C147.026 30.9189 147.313 30.3749 147.522 29.7554C147.731 29.1359 147.833 28.4959 147.833 27.8316C147.837 27.1677 147.714 26.5091 147.469 25.8911C147.227 25.2844 146.903 24.7455 146.501 24.2757C146.099 23.806 145.623 23.4399 145.081 23.1762C144.548 22.915 143.962 22.7797 143.368 22.7807H136.132V32.9183L136.131 32.917ZM133.016 44.4281V20.0312H143.539C144.623 20.0312 145.622 20.254 146.533 20.702C147.429 21.1372 148.23 21.7445 148.888 22.4889C149.543 23.2306 150.065 24.0794 150.429 24.9977C150.792 25.8994 150.98 26.8615 150.982 27.8329C150.984 28.665 150.862 29.4928 150.618 30.2892C150.376 31.0802 150.03 31.7957 149.58 32.437C149.135 33.0738 148.585 33.6316 147.953 34.0869C147.317 34.5452 146.608 34.878 145.824 35.0828L151.779 44.4293H148.248L142.64 35.6665H136.132V44.4293H133.017L133.016 44.4281Z" fill="white"/>
<path fill-rule="evenodd" clip-rule="evenodd" d="M157.628 32.2293C157.628 33.4658 157.829 34.6639 158.234 35.8197C158.616 36.9381 159.197 37.9797 159.948 38.8955C160.678 39.7821 161.586 40.5076 162.614 41.0255C163.654 41.5515 164.807 41.8165 166.075 41.8165C167.391 41.8165 168.568 41.5362 169.606 40.9743C170.644 40.4123 171.527 39.6802 172.255 38.7752C172.989 37.8565 173.551 36.8148 173.915 35.6994C174.296 34.5538 174.487 33.3967 174.487 32.2293C174.489 31.0068 174.284 29.7927 173.881 28.6376C173.477 27.4792 172.899 26.4616 172.15 25.5797C171.411 24.7072 170.505 23.9889 169.485 23.4664C168.458 22.9391 167.322 22.6754 166.075 22.6754C164.76 22.6754 163.583 22.9506 162.545 23.501C161.523 24.0372 160.622 24.774 159.896 25.6667C159.159 26.5793 158.59 27.6147 158.217 28.7247C157.828 29.8527 157.629 31.0368 157.628 32.2293M166.041 44.6005C164.31 44.6005 162.734 44.2523 161.315 43.5522C159.895 42.852 158.678 41.9253 157.663 40.7682C156.648 39.6111 155.863 38.2888 155.308 36.7989C154.754 35.309 154.477 33.7871 154.477 32.2293C154.477 30.6024 154.771 29.0447 155.36 27.556C155.926 26.1033 156.753 24.7645 157.801 23.6047C158.84 22.4591 160.068 21.549 161.487 20.8731C162.907 20.1973 164.447 19.8594 166.109 19.8594C167.839 19.8594 169.409 20.2203 170.817 20.9423C172.201 21.6457 173.436 22.6085 174.452 23.7775C175.47 24.9498 176.267 26.2943 176.806 27.7467C177.354 29.1912 177.635 30.7217 177.637 32.2651C177.642 33.8642 177.343 35.4498 176.755 36.9384C176.166 38.4271 175.358 39.7391 174.332 40.8731C173.305 42.0072 172.082 42.9122 170.662 43.588C169.242 44.2639 167.703 44.6018 166.041 44.6018M181.999 44.4277V20.0642H185.114V33.5336L197.785 20.0296H201.143L191.276 30.7855L201.696 44.4277H198.303L189.372 32.5723L185.114 36.9704V44.4277H181.999ZM221.151 41.6783V44.4277H204.466V20.0296H220.841V22.7791H207.582V30.6831H219.11V33.2597H207.582V41.6795L221.151 41.6783Z" fill="white"/>
<path d="M228.697 32.917H236.14C236.786 32.917 237.369 32.7788 237.889 32.5048C238.408 32.2309 238.852 31.8584 239.222 31.3887C239.592 30.9189 239.88 30.3749 240.089 29.7554C240.298 29.1359 240.399 28.4959 240.399 27.8316C240.404 27.1677 240.28 26.5091 240.036 25.8911C239.793 25.2844 239.47 24.7455 239.067 24.2757C238.665 23.806 238.189 23.4399 237.648 23.1762C237.115 22.915 236.528 22.7797 235.934 22.7807H228.699V32.9183L228.697 32.917ZM225.582 44.4281V20.0312H236.105C237.19 20.0312 238.188 20.254 239.1 20.702C239.996 21.1372 240.796 21.7445 241.454 22.4889C242.11 23.2306 242.631 24.0794 242.995 24.9977C243.359 25.8994 243.546 26.8615 243.548 27.8329C243.551 28.665 243.428 29.4928 243.185 30.2892C242.942 31.0802 242.597 31.7957 242.147 32.437C241.701 33.0738 241.151 33.6316 240.519 34.0869C239.884 34.5452 239.174 34.878 238.39 35.0828L244.345 44.4293H240.815L235.207 35.6665H228.699V44.4293H225.583L225.582 44.4281Z" fill="white"/>
</svg>
