<svg width="187" height="38" viewBox="0 0 187 38" fill="none" xmlns="http://www.w3.org/2000/svg">
<path d="M57.2775 0.256579C55.2266 0.660048 53.6463 1.61829 52.7049 3.04724C51.5449 4.76198 51.3432 5.68659 51.2423 9.56998L51.1414 13.0163L49.847 13.0667L48.5357 13.1171V15.7901V18.4799H49.8806H51.2255V27.9782V37.4766H54.5037H57.7819V27.9782V18.4799H60.4717H63.1614V15.7901V13.1003H60.4548H57.7482L57.8155 10.3601C57.8659 7.87205 57.8995 7.58626 58.2526 7.03149C58.4543 6.69527 58.8578 6.32542 59.1268 6.20774C59.8664 5.90514 61.6989 6.09006 62.9429 6.5944L63.9684 7.01468L64.5736 4.59387C64.9098 3.26578 65.1788 2.10581 65.1788 2.00494C65.1788 1.76959 63.8003 1.09714 62.4049 0.660048C61.245 0.307013 58.2862 0.0716561 57.2775 0.256579Z" fill="white"/>
<path d="M71.6182 16.5818C71.6686 33.7965 71.6518 33.3258 72.4924 34.9565C73.0976 36.1333 73.6187 36.6376 74.8964 37.2764L76.174 37.8984H78.6957C80.6122 37.8984 81.4528 37.8312 82.1588 37.6126C83.655 37.1419 83.6382 37.1756 83.9744 34.5026C84.1425 33.1745 84.277 32.0986 84.277 32.0986C84.2602 32.0986 83.8904 32.2163 83.4365 32.3507C82.3438 32.687 80.4441 32.6702 79.7884 32.3339C78.6789 31.7624 78.7125 32.4516 78.6621 15.6572L78.6117 0.493531H75.0813H71.551L71.6182 16.5818Z" fill="white"/>
<path d="M121.835 19.0708V37.4791H125.029H128.223V36.0333V34.5707L129.114 35.4113C130.98 37.1765 132.897 37.8993 135.788 37.8825C139.235 37.8825 141.857 36.8739 144.11 34.6716C146.396 32.4189 147.573 29.2584 147.573 25.3414C147.573 19.9954 145.169 15.8094 140.949 13.7921C139.134 12.9179 138.075 12.6994 135.956 12.6994C133.3 12.6994 131.048 13.5063 129.4 15.0529C128.963 15.4564 128.56 15.7926 128.492 15.7926C128.442 15.7926 128.391 12.3799 128.391 8.22758V0.662546H125.113H121.835V19.0708ZM137.268 19.0708C140.697 20.6006 142.042 25.2909 140.109 28.9558C139.504 30.0989 138.596 30.9563 137.301 31.5783C136.478 31.965 136.175 32.0154 134.612 32.0154C133.031 32.0154 132.746 31.965 131.905 31.5447C129.82 30.536 128.576 28.8213 128.223 26.5013C127.669 22.9374 129.787 19.4743 133.048 18.6505C134.174 18.3647 136.141 18.5665 137.268 19.0708Z" fill="white"/>
<path d="M16.8139 5.11454C8.45871 7.26638 1.51568 9.11561 1.36438 9.2501C0.960913 9.58632 0.77599 10.1915 0.944102 10.6286C1.12903 11.0825 9.63549 19.6562 17.9738 27.776C23.303 32.9707 23.8409 33.4414 24.3621 33.4414C24.7488 33.4414 25.0682 33.3069 25.2867 33.0547C25.5389 32.7858 26.6484 28.852 29.5063 17.9751C31.6413 9.88892 33.4065 3.11401 33.4233 2.92909C33.5242 2.22302 33.2384 1.65144 32.65 1.39927C32.3306 1.26478 32.0448 1.16391 32.028 1.18073C31.9944 1.18073 25.1522 2.9459 16.8139 5.11454Z" fill="white"/>
<path d="M155.841 1.66596C154.462 1.95175 153.554 2.69144 152.949 4.01952C152.277 5.4821 152.579 7.02873 153.773 8.25594C156.295 10.8449 160.666 9.13013 160.666 5.53253C160.666 3.02766 158.346 1.17843 155.841 1.66596Z" fill="white"/>
<path d="M99.5922 11.4189C94.1118 12.4108 90.3124 15.6889 88.8667 20.6987C88.3623 22.4302 88.2447 25.6916 88.6145 27.5072C89.9594 34.1644 95.7761 38.3336 103.156 37.9301C109.292 37.5939 113.899 34.1308 115.479 28.6504C115.815 27.4904 115.865 26.9356 115.865 24.5316C115.865 21.8418 115.849 21.7073 115.311 20.1607C115.008 19.2865 114.554 18.2274 114.319 17.8072C112.621 14.8484 110.049 12.8815 106.451 11.8392C105.224 11.4693 104.501 11.3685 102.669 11.3348C101.425 11.3012 100.029 11.3348 99.5922 11.4189ZM105.022 18.0761C106.418 18.7318 107.544 19.8581 108.25 21.3039C108.788 22.3966 108.805 22.4807 108.805 24.6157C108.805 26.633 108.771 26.8684 108.351 27.7762C107.258 30.1129 105.089 31.5923 102.568 31.7268C98.012 31.979 94.9355 28.4318 95.4567 23.523C95.7593 20.7827 97.4572 18.6141 99.9621 17.7735C101.441 17.286 103.61 17.4205 105.022 18.0761Z" fill="white"/>
<path d="M153.438 25.2884V37.4766H156.716H159.994V25.2884V13.1003H156.716H153.438V25.2884Z" fill="white"/>
<path d="M166.383 15.7061V18.3118H171.847C174.856 18.3118 177.311 18.379 177.311 18.4463C177.311 18.5303 174.671 21.8253 171.427 25.8096L165.543 33.0216V35.2407V37.4766H175.798H186.053V34.8708V32.2651H180.169C176.268 32.2651 174.285 32.2147 174.285 32.097C174.285 31.9961 176.975 28.6675 180.253 24.7001L186.221 17.4712V15.2858V13.1003H176.302H166.383V15.7061Z" fill="white"/>
</svg>
